<svg xmlns="http://www.w3.org/2000/svg" xmlns:xlink="http://www.w3.org/1999/xlink" version="1.1">
<symbol id="my_img" viewBox="0 0 393.03 496.51">
  <defs>
    <style>
      #my_img path {
    fill: #111;
    stroke: #111;
    stroke-width: 1px;
    animation: svg 4s ease-in;
  }
  @keyframes svg {
    0% {
      stoke: transparent;
    }
    55%{
      stroke-dasharray: 6000;
      stroke-dashoffset:6000;
    }
    80%{
      fill: transparent;
    }
  }
    </style>
  </defs>
<g id="logo">
    <path d="M188,498.43c7.51-13.72,1.75-31.44,11.41-43.69,6.66-8,14.75-15,18.89-24.7,9.3-21.6,26.09-7.11,18.38-33-3.46,12-8-12.88-21.72-16.62l-.55.59c1.17,3.85,2.67,30.15-5,21.32-5.76-15.25-19.49-24.54-34.5-29.49,2.28,2.93,4.84,4.55,5.53,8-5.74-1.05-8.95-6.92-13.74-10.06-.59,7.23-3.46,13.39-6.3,19.56l-.75,0c-2-7.63,2.27-16.39-2.35-23.36,1.12,7.88,1.4,23.63-6.92,26.9,7.14-15-6-27.55-16.57-36.7-3.18,4.41-3.06,11.42-7.53,14.35-1.13-1.78,0-3.75-.52-5.82-1.77,4.76-3.67,11-8.15,13.68l-.61-.5c12.7-22-4.06-35.56-19.66-49.31-1,20.06,4.09,50.6-18.22,60.27a1,1,0,0,1-.74-1.79c21-17.57,9.08-48.5,6.25-71.47-5.5-10.75-11.51-21.82-9.38-34.52.06-2.15-1.26-4.18-2.09-6.12-14.36-16.24-23.46-39-21.69-62,.62-43.85,24.06-83.07,49.05-117.6,23.53-34.82,63-53.07,104.56-53.19-10-10-12.5-26-7.79-39.26.69-2,.71-2,3.28-1.71-.57,1.88-1.13,3.73-1.7,5.59l.45.22c1.85-2.31,2.41-7.2,6.44-5.79-11.06,14.06-8.27,34.41,7.75,43.42,9.11-1.2,18.68-5.07,28.42-5.28,21.64-4.26,42,7.58,62,14.35,28.23,11.2,47.86,34.79,68.88,55.6,40.53,39,36.11,99.7,16.55,147.94-.73,2.25-1,4.91-3.52,6.31-.55.3-.63,1.52-.86,2.34-3.45,16.62-16.19,35.14-8,51.72-9.78-4.42-8.66-17-12.29-26.22-1.62,3.73-6.53,6.65-4.71,10.43,8.07,14.17,20.86,23.39,35.36,30l-2,1.07c5.09,15.23-5.21,31-7,46.3-.06,3-4.94,17.59,1.41,14.08,14.08-11.28,27.61-23.2,41.12-35.14,3.41-4.35,18.39-11.23,15-.3-12.89,15.45-27.25,29.38-40.45,44.64,4,3,4.22,6.82,2.89,11.18,5.76,2,5.58,12.36,1.51,16.41-9.77,13.06-17.79,27.15-30.56,37.72-3.13,9.06.78,20,.44,29.66H375c1.61-10.6-6.42-25.55,2.45-33.46,12.53-9.34,18.61-23.69,28.26-35.49,2.23-2.41,2.7-5.4,2.15-8.57-.27-4.21-3-3.22-6.12-2.81-6.16.11-10.3,3.43-14.15,7.9-1.63,4.11,11.4,14.9-.55,13.45,3.49,7,9,.78,7-4.05-2.94-1.74,3.49-6.53,5-7.91,1.82-.61,2.4,1.4,2.67,2.79-2,1-5.28,1.54-5.09,4.8.59,7-4,14.05-10.63,7.67-9,11.56-9.58-16.75-17.24-9.81-1.91,2.89-1.87,8.53-6.6,8.05,6.84-21.85,13.79-7.66,27.58-3.73-6-15.49-13.28-16.26-27.24-21.7,2.33-3.56,22.19,5,22.79,9.07,9-8.84,7.52-6.7,18.26-9.82,4.89-13.61-8.86-7.67-15.65-4.59-3.16,2.28-5.23,8.21-9.42,8,4.36-11.29,13.45-10.82,22.12-15.42C413.89,387,430.6,373,441.87,356c-11.06-5.54-59.16,59.85-60.18,35.68.56-16.7,15-42,8.55-56.74-11.72,18.87-8.12,46.81-23.64,63.46-2.92,4.68-9.5,9-10,14.46,3,3.17-5.37,4.22-7,6.56-7.53,19.84,2.22,28,4.47,45.91.17,11.05,1.65,22.07,2.57,33.11H354.1c-.19-3.19-.38-6.37-.53-9-9.29-15.7-22.43-27.88-35.42-40.67-7.18-3.94-20.71-32.57-26.65-28.49-2.74,5.84-17.72,15.93-14.41,21.54,2.21,6.7,2.63,15.48,9.57,19.32-.46-6.46-6.86-9.93-7.38-16.35,22.61,24.16.39,28.22-5.15-4.53-9.75,11.94-24,13.06-37.71,7.82-7,.46-9.74,12.7-7.83,18.38l.74.16c4-3.95.72-11.4,4.76-15,2.48,30.5-18.69,15.15-2.3-4.46L216.48,439c-27.1,26-15.88,28.82-25.91,59.44ZM308.29,276.29l1.56-.35,1.19,1.43c1.38-1.79-.26-4.45-.21-7a59.69,59.69,0,0,0-5.49,3.13,9,9,0,0,0,3,2.86c-2,.42-.49,2-1,3a4.63,4.63,0,0,0-.15,1.73C312.42,281.79,310.36,279.07,308.29,276.29ZM171.92,240l.35-.19c-9.5-39.22-6.81-84.76,4.83-121.78.56,14.65-1.68,31-.33,46.2,1.58,28.12,5,61.37,17.52,85.17,2.45-8.26-5.74-22.25-6.3-31.82-1.44-12.93-5-27-2.41-39.79,4.53,22.37,3.7,46.28,12.72,68.08.64,1.93,1.55,2.44,3.45,1.88,1.69-.49,3.16-.55,2.63-3.2-4.37-24-11.22-50.14-2.77-73.73,5.47,8.15,3.3,20.31,6.33,29.78,3.86,14.81,6.19,30.95,12.67,44.66,2.22-3-.59-27.66,5.81-16.72,3,10.89-3.58,19.56,12,16.4,10.61-23.75,6.46-54.05,6.73-80.25,6.12-6,5.29,18.26,6.83,21.7,3.68,19.41,1.23,38.83-2.2,58.11,3-3,3.19-9.67,6.8-11,3.15,2.12-.28,7.53,0,11.06,10.05,1,10.16-16.2,14.31-23.27.57-2.4,3.84-1.74,3.79-4.15,5.79-22.37-.12-46.22,2.9-68.14,11.48,24.4,6.13,54,8.26,80.44l.92.09c11.35-43.19,2.43-89.31-16.61-128.31,16.79,20.73,20.11,50.39,28,75.56,8.79,34.1,17.52,68.53,15.65,104.06-.94-.25-1.8.4-2.69.64,5.09,9.68-6.59,33.32-11.32,43.09l.61.32c13.39-20.79,22.45-44.78,18.37-69.83-.34-2.17,0-5.43,2.38-6.27C325,260,322.58,274.42,324,286.68c.9,22-10.9,41.81-18.64,61.75l.62.46A216.64,216.64,0,0,0,336.23,283c1.28,12.42-4.75,25.6-9.92,37,10.69-10.66,15.1-25,20.59-38.3,4.57,6,4.93,14.65,9.56,20.95-5.61-17.7-6.65-36.3-8.7-54.72-2-15.83-4.73-31.57-8.31-47.11-.09-4.17-2.27-9.59.67-13,2.73,2.31,9.34,34.12,13.61,23.8-.9-4.57-4.5-8.83-4-13.43,5,1.63,4.75,8.65,6.7,12.81.46,1.56.82,2.64,2.93,2.49,8.41,1,14.5,8.47,18.43,15.41,9.81,19.05,5.05,42.67-10,57.43-3,6.35,2.63,14.44,3.6,21.17,1.74-18.33,11.36-35.05,13.32-53.45A220.46,220.46,0,0,0,315,70.07C328.46,74.27,339.53,86,352,93,326,64.22,286.31,43.74,247.5,42.28c-10,1.29-20.11,2.19-29.59,5.83a9.24,9.24,0,0,1-6.83.21c-13.68-4.38-28.61-.36-42.23,2.6-47.24,11.19-76.52,56.5-97.33,97.15,7.17-7,9.75-19.31,18.27-24.8-4.65,19.81-16.37,38.56-19.1,59.25,2.62,30.35-5.92,61.88,6.17,91.18,4.59-7.46,6.93-16.7,16.4-18.19,4.67-2.4-.81-11.07,0-15.67.11-11.14-4.3-24.27-1.29-34.58,3.74,2.48,1.79,20,3.44,25.59,1.32,21.22,6.21,41.79,15.47,61,7.73,21.5,23.74,41.88,19.67,65.79,5.07-8.19,2.51-18.22,5.6-26.45,2.13,4.73,1.2,9.53,6.45,12.87,7.38,6.18,13.68,13.59,21,19.89-13.14-22.5-28.12-47.57-29.1-74.18,8.56,16.57,19.48,32.52,37.1,40.9-22.81-18.11-40.11-42.06-40.78-72.31A368.5,368.5,0,0,1,150,107.43c-.76,25.13-14.33,50.26-13.74,75.81,5.44,24,11.4,49,25,69.82-8.2-18.61-9.79-39.61-11.2-60.06.26-10.08-3.79-22.05-.52-31.27,4,8.61,2.16,20.12,4.49,29.65C156.29,208.91,163.5,224.67,171.92,240Zm-21.34,51.89c19.64.06,40.22-9,59.24-6.18-2,2.63-5.2,2.63-8.25,4,2,1.78,1.53,3.09-.4,4,1.74,1.72,4.44,2.52,5,4.91-13.59-.76-30.4-.93-39.57,11.27l-.6-.39,2.23-5.19c-4.46.76-6.32,4.55-9.28,6.93.52-2.52-1.73-5-4-2.77l1.65,1.52-1.76,1.63c10.78,14,27.5,20.9,41.08,30.3-21.89-2.27-43.44-17.71-55.65-36.13l-.56.28c13.42,58,40.08,62.95,93.65,70.37,6.81,4.86,5.11,25.62,7.78,34.42,2.32,8.51-5.58,13.83-12.55,16.7,23.43,21.52,32.07,14,48.4-9.23-16.53-.29-19.06-17.06-20.58-30.22.35-5.17-3-13.45,2-16.8,16.35-4.59,33.18-13.23,45.11-25.05,8.11-20.42,19.45-40.11,17.48-62.91-5.43,29.31-24.39,54.61-46.23,74.1l-.81-.72c13.86-17,27.56-34.5,33-56.34,1.77-9.7,7.36-14.92-6.32-16l2.57,4.42c-15.19-11.07-31.94,4.15-47.56,4.48,1.49-2.83,4.51-3.21,7.23-5.08-2.49-1.86-8.66,1.89-8-2.87-2-1.08-4.75-1.27-5.91-3.45,13.13-3.8,26.91-7.42,40.55-9.93,6.79-1.93,16.34-1.69,21.6-6-.92-32-8.9-63.18-17-94l-.52.07c-.13,25.23,4,55.38-14.07,75.56,4.86-26,3.2-53.66,1-80.31.46,22.87-.35,46.62-7.48,69-1.21,3.6-1.18,8.23-5.45,9.53-.93-2.68-.08-5.26.49-7.91-2.56,3.22-2.84,9.55-8.17,8.88-2.38-.65-6.71,2.51-6.36-2.1-1.4,2.35-3.47,2.81-5.8,2.8-2.44-1.25.12-5.6-.05-7.92a154.3,154.3,0,0,0,1.11-56.3c.71,20.31-1.07,41.72-6.38,61.56-1.95,4.84-9.29,2.46-13.5,3.31-5.59.44-3.09-6.19-3.63-9.71h-.54c-5.71,38.64-22.54-48.67-22.67-56.12-5.19,21,1.8,42.6,5,63.39.48,2.69-.06,3.36-2.71,4.09-4.31.13-12.56,6.29-14.47.33-12-33.37-15.72-68.15-16.52-103.38h-.87c-5.55,37.49-5.11,76.45,9.29,111.41-13.14-13.05-20.91-32.74-27.81-50,.08,19.23,7.7,36.6,13.89,54.25-20.88-13.51-25.3-49.1-33.59-72-2.69,34-6.26,71.73,8.29,103.45a1.74,1.74,0,0,0,.79-2c2.55-.13,5-.62,6.44,2.46Zm205.7,15.76c-6.6,17.12-9.38,37.38-3.26,55-13.4-3.75-16.91-19.85-17.88-32.34-9.94,19.23-25.61,36.25-27.6,58.12-5.71-6.74-5.13-16.38-5.8-24.73l-.77-.15c-4.51,7.35-7.86,14.75-8.49,23.35-6.79-2.29-7.86-10.69-11.41-16.48-6.38,7.55-9.68,16-12.53,25.27l-.84-.09c-2.43-3.62-1.36-8.36-3.7-12.19a26,26,0,0,0-.11,25.3c28.08-6.1,40.11,21.28,56,38.4,11.54,12,24.53,22.39,32.95,37-1.25-11.7.37-24-5.41-34.51-2.72-5.39-4.07-10.86-2.6-16.85,3-10.6-2.45-12.49,8.73-19.47,1.65-6.88,7.5-11.19,11.43-16.77,14.3-18,12.59-43.77,22.93-64C368.91,323.65,372.62,328,356.28,307.67ZM124.55,330.23c-8.7-23.79-22.15-46-27.88-70.9-8.37-5.35-16.4,13.05-18.1,19.93C71.19,307.86,97.55,329.93,124.55,330.23Zm231.73-37.79c46-27.81,13.69-97.76-9.59-70.41C350.89,245.46,351.76,269.06,356.28,292.44Zm-29.12-213-.55.65c47.86,42.37,64.16,110.44,61.23,172.32,14.34-33.83,7.7-72.35-2.63-106.38C375.13,114,355.57,95.58,327.16,79.41ZM306,379.42c3.07-12.38,10-22.54,16.65-33.16,7.38-9.14,10-21.59,16.56-30.61.76,13.08-4.73,30.53,8.29,40.4-.79-16.37.78-32.4,5.75-48.05,1.36-11.93-9.09-16.07-12.84-3.12-11.6,17-23.62,33.74-35.6,50.48C303.37,363.09,304.4,371.32,306,379.42ZM276.8,410.85l-.33.74c8.9,10.16-8.63,19.22-13.68,27-10.2,11.72-32.9-2.73-38.51-14.06-2.22,5.67-10.44,11.86-1.58,15.23a89.32,89.32,0,0,0,25.61,9c19.92,2.6,32.05-19.33,43.2-32.69ZM67.17,261.05l.82-.29C56.3,218.31,66.11,174.9,83.17,135.4,58.49,170.82,47.49,220.69,67.17,261.05Zm331.74-44.58c10.19-42.69-6.86-84.56-26.86-103C392.56,145.31,398.13,180.47,398.91,216.47ZM90.33,374l.34.13c6.48-15.18,2-32.06,4.81-47.68,12.32,6.51,24.32,18.53,28.51,32.3,1.63-7.07-2.45-13.14-2.64-19.86,4.25.95,4.32,5.75,6.8,9.21,1.39-24.68-16.1-9.9-40.17-27.8C90.67,338,95.81,356.25,90.33,374Zm209.46-19.52-.53-.31c-12.13,7.56-23.95,15.93-38.05,19.37-5.1,1.63-1.51,8.89-2.33,13l.79.06c3.37-11.68,5.16-11.09,8.47.17,11.19-17.07,10.57-30.61,21.63-5.08l.76-.06C291.54,371.84,295.38,363.05,299.79,354.44Zm-133,7.68c11.09,17,32.72,8.59,44.49,37.81C216,393.3,203,380.42,209.45,380c2.2,0,2.81-1.48,3.84-3C197.5,372.5,181.26,370.23,166.83,362.12ZM151.4,357l-.4.32c-4.51-4.49-8.66-9.79-13.37-13.87-8.33,19.61,11.94,14.81,17,37.93,3.13-7.53-.18-17.38-6.46-22.29-1.66-1.44-4-2.49-3.54-5.09C147.31,353.39,149.17,355.87,151.4,357Zm68.37,21.64,13.46,14.15c.39-2.44-2.73-8,1-8.33C234.41,377.35,224.78,378,219.77,378.63Zm-71.69-74.22c2.41,1.55,3.33-1,4.24-2,1.5-1.57-.13-3.25-1.31-4.58l2.44-1.78c-4.06-.25-7.46-1.68-11-1.07,1.9,3.12,3.09,5.57,7.2,4l.85,2.83-2.45.66Zm79.36,116.51c2.78,1.06,1,2.34,1,3.49,5.26-1.26,11.06-5.55,9.82-9.2Zm38.24-9.55c3,3.12,6.58,3.53,10.45,4.31C274,411.37,270.52,410,265.68,411.37ZM162.24,377.7l.79.05c1.46-6.05,1.47-10.57-4.2-14.15C161.79,367.91,162.26,372.73,162.24,377.7Zm215.31,57.14c1.87,2.57,2.72,10.42,6.59,6.57C383.29,437.63,380.41,436.46,377.55,434.84ZM345.13,294.19l4.56.36c-.91-2.58-1.63-4.66-2.36-6.74l-.44,0C346.35,289.78,345.81,291.72,345.13,294.19ZM126.72,360.65c2.33-6.19,2.22-8.59,0-9.13Zm218.6-150.77-.65.15c.51,2.11,1,4.22,1.54,6.33l.86.09C348.33,213.94,346.36,212,345.32,209.88ZM159.48,303.69l-.47-.58C152.06,304.37,154.72,308.4,159.48,303.69ZM55.68,233.06l-.58.13,1.68,7.89.7-.16Zm304.88,60.36c-3.08,1.15-3.23,1.39-2.16,3.43Zm-206.75,5.13-.17.77,3.62,1.2.3-1.11Z" transform="translate(-51.22 -1.92)"/>
    <path d="M322.5,498.43c-5.21-12.89-14.72-23.68-20.62-35.79,11.05,8,17.08,23.64,23.61,35.79Z" transform="translate(-51.22 -1.92)"/>
    <path d="M200,498.43c3.42-10.33,4.86-21.74,10.86-30.94,1.47,1.75.84,3.32.12,4.71-4.26,8.28-5.62,17.48-8.42,26.23Z" transform="translate(-51.22 -1.92)"/>
    <path d="M263.05,2.14c11.63,2.75-.52,23.6-5.15,29.28,9-6.26,17.51-15.95,18.11-27.5.22-1.61.72-2.41,2.63-1.72.49,14.21-15,35.64-29.95,33.42C257.59,27.25,269.91,16,263.05,2.14Z" transform="translate(-51.22 -1.92)"/>
    <path d="M325.86,183.75c9.42,16.78,22.88,52.61,15.43,70.52-.16-23.93-7.05-47.82-16.23-70.17Z" transform="translate(-51.22 -1.92)"/>
    <path d="M117.7,292.54l-1.11,1.4c-3.35-3-3.54-8.69-5-12.86-2.14-14.56-8.46-29.68-8-44.1C111,253.84,110.81,274.76,117.7,292.54Z" transform="translate(-51.22 -1.92)"/>
    <path d="M136.58,317.4c-6.15,5.25-19.84-43.65-18.32-49.92C125.38,283.41,127.05,302.05,136.58,317.4Z" transform="translate(-51.22 -1.92)"/><path d="M306.75,82.2c-10.84-7-21-15.69-32.48-21.37,13,0,23.72,12.53,32.92,20.68Z" transform="translate(-51.22 -1.92)"/>
    <path d="M318.94,139.1c-2.61,2.22-3.72-5.59-5.33-7.26-1.81-5.45-10.57-16.39-9.63-20.76C311.51,117.53,314.84,129.87,318.94,139.1Z" transform="translate(-51.22 -1.92)"/>
    <path d="M244.14,71.78c-2.1,1.07-3,0-4.38-1.32-4-5.21-11.44-7.64-14.5-13.09C233.34,57.74,238.89,66.23,244.14,71.78Z" transform="translate(-51.22 -1.92)"/>
    <path d="M221.44,57.27c-1.07,4.31-4.49-1.34-7-.61,0,1.34,0,2.68,0,4-3.07-.64-6.83-3.51-6.67-6.89C213,53.65,219.11,51.23,221.44,57.27Z" transform="translate(-51.22 -1.92)"/>
    <path d="M166.77,78.76c2.95-4.41,8-12.76,13.52-13.26-2.38,5.66-8.42,9.71-13,13.72Z" transform="translate(-51.22 -1.92)"/>
    <path d="M233.94,343.79c-10.89-.42-27.35-9-31.86-20.29,5.57-3,13.4-.33,19.7-1.34,16.36-.06,32.32-4.4,48-8.84C284.5,313.14,251.76,348.54,233.94,343.79ZM269,317.94l-.43-.77a191,191,0,0,1-61.74,8.22C223.19,348.86,257.87,343.85,269,317.94Z" transform="translate(-51.22 -1.92)"/>
    <path d="M148.69,290c5.44-4.8,24.4-11.5,30.77-8.48-9.36,4.33-20.8,4.3-30.32,9.17Z" transform="translate(-51.22 -1.92)"/>
    <path d="M298.22,266.15c-6.5-.24-15,3.69-20.57,1,2.91-2.59,24.48-4.75,27.69-1.94-1.87,2.06-4.64,1.08-7.09,1.26Z" transform="translate(-51.22 -1.92)"/>
    <path d="M273,269.58c-4,2.19-9.86,5.12-14.34,4.31,2.45-4,9.59-4.69,14.13-5.07Z" transform="translate(-51.22 -1.92)"/>
    <path d="M192.56,280.39c-2.44.06-5.05,1.29-7.26-.17,1.42-2.7,10.51-2.38,12.48-.3-1.62.93-3.42.69-5.21.68Z" transform="translate(-51.22 -1.92)"/>
    <path d="M290.36,298.47l3.91,6.08C290.14,303.58,288.61,301.13,290.36,298.47Z" transform="translate(-51.22 -1.92)"/>
    <path d="M298.91,298.19c1.07.47,3.56,4,3.3,4.78C300.05,304.69,298.73,300.16,298.91,298.19Z" transform="translate(-51.22 -1.92)"/>
    <path d="M285,304.91c-6.92-1.44-3.86-7.77.58-.53Z" transform="translate(-51.22 -1.92)"/>
    <path d="M145.52,300.74l.64.21" transform="translate(-51.22 -1.92)" style="fill:none;stroke:#000;stroke-linecap:round;stroke-linejoin:round;stroke-width:2px"/>
    <path d="M352.82,464.91l.21.64" transform="translate(-51.22 -1.92)" style="fill:none;stroke:#000;stroke-linecap:round;stroke-linejoin:round;stroke-width:2px"/>
    <path d="M147,304.79l.22-3.41" transform="translate(-51.22 -1.92)" style="fill:none;stroke:#000;stroke-linecap:round;stroke-linejoin:round;stroke-width:2px"/>
    <path d="M151.5,294.76l-2.78-.21" transform="translate(-51.22 -1.92)" style="fill:none;stroke:#000;stroke-linecap:round;stroke-linejoin:round;stroke-width:2px"/>
    <path d="M299.23,298.39l2.56,4.7" transform="translate(-51.22 -1.92)" style="fill:none;stroke:#000;stroke-linecap:round;stroke-linejoin:round;stroke-width:2px"/>
    <path d="M157.47,309.49l-4.05.64" transform="translate(-51.22 -1.92)" style="fill:none;stroke:#000;stroke-linecap:round;stroke-linejoin:round;stroke-width:2px"/>
    <path d="M310.76,278.53c-.59-.75-2.19-1.26-.64-2.56" transform="translate(-51.22 -1.92)" style="fill:none;stroke:#000;stroke-linecap:round;stroke-linejoin:round;stroke-width:2px"/>
    <path d="M312,278.75l.85,2.56" transform="translate(-51.22 -1.92)" style="fill:none;stroke:#000;stroke-linecap:round;stroke-linejoin:round;stroke-width:2px"/>
    <path d="M311.83,280.24l-1.71,2.14" transform="translate(-51.22 -1.92)" style="fill:none;stroke:#000;stroke-linecap:round;stroke-linejoin:round;stroke-width:2px"/>
    <path d="M150.64,298c2.15-.31,2.39,1.43,3,2.78" transform="translate(-51.22 -1.92)" style="fill:none;stroke:#000;stroke-linecap:round;stroke-linejoin:round;stroke-width:2px"/>
    <path d="M144.45,293.91l-1.92.42" transform="translate(-51.22 -1.92)" style="fill:none;stroke:#000;stroke-linecap:round;stroke-linejoin:round;stroke-width:2px"/>
    <path d="M281.4,367.77l-.1,1.28" transform="translate(-51.22 -1.92)" style="fill:none;stroke:#000;stroke-linecap:round;stroke-linejoin:round;stroke-width:2px"/>
    <path d="M95.88,327.21l.32.85" transform="translate(-51.22 -1.92)" style="fill:none;stroke:#000;stroke-linecap:round;stroke-linejoin:round;stroke-width:2px"/>
    <path d="M394.66,433.74l-.85.11" transform="translate(-51.22 -1.92)" style="fill:none;stroke:#000;stroke-linecap:round;stroke-linejoin:round;stroke-width:2px"/>
    <path d="M250.56,35.16l-.11.85" transform="translate(-51.22 -1.92)" style="fill:none;stroke:#000;stroke-linecap:round;stroke-linejoin:round;stroke-width:2px"/>
    </g>
  </symbol>
</svg>